<svg xmlns="http://www.w3.org/2000/svg" xmlns:xlink="http://www.w3.org/1999/xlink" width="184" zoomAndPan="magnify" viewBox="0 0 138 37.5" height="50" preserveAspectRatio="xMidYMid meet" version="1.0"><defs><g/><clipPath id="2b9ab71029"><path d="M 9.710938 1 L 40 1 L 40 35.089844 L 9.710938 35.089844 Z M 9.710938 1 " clip-rule="nonzero"/></clipPath><clipPath id="8191fa19df"><path d="M 19.414062 32.589844 L 20.953125 33.519531 L 23.507812 34.992188 C 23.507812 34.992188 24.957031 35.304688 25.816406 34.8125 C 26.675781 34.320312 37.285156 28.058594 37.285156 28.058594 C 37.285156 28.058594 38.035156 27.667969 38.6875 26.789062 C 38.6875 26.789062 39.023438 26.058594 38.929688 25.683594 L 38.984375 12.027344 C 38.984375 12.027344 39.265625 11.203125 38.277344 9.726562 C 37.285156 8.25 35.175781 10.15625 35.175781 10.15625 L 33.515625 12.417969 C 33.515625 12.417969 33.277344 12.984375 33.140625 13.558594 C 33.003906 14.128906 32.855469 14.777344 32.867188 16.945312 C 32.878906 19.113281 32.828125 20.421875 32.828125 20.421875 L 32.742188 20.496094 C 32.742188 20.496094 31.570312 17.125 26.488281 13.480469 C 26.488281 13.480469 29.179688 7.652344 33.738281 9.277344 C 33.738281 9.277344 32.132812 10.4375 31.890625 11.390625 C 31.890625 11.390625 33.347656 9.167969 36.953125 8.753906 L 25.277344 2.007812 C 25.277344 2.007812 24.714844 1.675781 23.863281 1.964844 C 23.007812 2.253906 20.511719 3.734375 20.511719 3.734375 L 18.289062 5.257812 L 17.773438 6.152344 L 17.773438 7.347656 L 17.90625 7.90625 L 18.636719 9.007812 L 20.867188 11.015625 L 27.015625 15.390625 C 27.015625 15.390625 31.570312 18.515625 32 21.585938 C 32 21.585938 32.414062 23.816406 31.964844 24.285156 C 31.964844 24.285156 31.125 22.546875 29.667969 21.238281 C 28.210938 19.929688 22.960938 16.996094 21.519531 16.398438 C 20.082031 15.800781 16.421875 13.78125 16.421875 13.78125 C 16.421875 13.78125 12.628906 11.707031 11.097656 9.484375 C 11.097656 9.484375 10.445312 9.238281 10.332031 10.453125 C 10.332031 10.453125 10.332031 11.425781 11.414062 12.171875 C 12.5 12.921875 14.367188 14.378906 20.605469 17.164062 C 20.605469 17.164062 23.621094 18.371094 28.128906 21.207031 C 28.128906 21.207031 30.003906 22.171875 30.898438 24.09375 C 30.898438 24.09375 31.515625 26.226562 30.039062 27.722656 C 30.039062 27.722656 30.019531 25.046875 27.628906 23.496094 C 25.238281 21.945312 23.746094 21.703125 23.746094 21.703125 L 18.457031 20.359375 C 18.457031 20.359375 12.03125 18.964844 10 17.207031 L 9.898438 17.15625 L 9.792969 17.21875 C 9.792969 17.21875 9.769531 18.222656 9.957031 18.519531 C 10.144531 18.820312 10.527344 19.667969 12.085938 20.464844 L 14.015625 21.050781 C 14.015625 21.050781 17.914062 21.535156 19.894531 21.730469 C 21.875 21.929688 23.019531 22.371094 23.019531 22.371094 C 23.074219 22.339844 27.671875 23.242188 28.878906 26.53125 C 30.179688 30.078125 21.683594 32.71875 19.414062 32.589844 Z M 19.414062 32.589844 " clip-rule="nonzero"/></clipPath><linearGradient x1="298.4265" gradientTransform="matrix(0.0902911, 0, 0, 0.0903181, 9.791572, -4.13874)" y1="45.772663" x2="27.916198" gradientUnits="userSpaceOnUse" y2="453.028747" id="2c5bd351e4"><stop stop-opacity="1" stop-color="rgb(9.399414%, 21.998596%, 10.598755%)" offset="0"/><stop stop-opacity="1" stop-color="rgb(9.399414%, 21.998596%, 10.598755%)" offset="0.015625"/><stop stop-opacity="1" stop-color="rgb(9.428406%, 22.064209%, 10.623169%)" offset="0.0234375"/><stop stop-opacity="1" stop-color="rgb(9.605408%, 22.460938%, 10.774231%)" offset="0.0273438"/><stop stop-opacity="1" stop-color="rgb(9.753418%, 22.792053%, 10.899353%)" offset="0.03125"/><stop stop-opacity="1" stop-color="rgb(9.899902%, 23.121643%, 11.022949%)" offset="0.0351562"/><stop stop-opacity="1" stop-color="rgb(10.047913%, 23.452759%, 11.148071%)" offset="0.0390625"/><stop stop-opacity="1" stop-color="rgb(10.194397%, 23.782349%, 11.273193%)" offset="0.0429688"/><stop stop-opacity="1" stop-color="rgb(10.342407%, 24.113464%, 11.398315%)" offset="0.046875"/><stop stop-opacity="1" stop-color="rgb(10.488892%, 24.443054%, 11.521912%)" offset="0.0507812"/><stop stop-opacity="1" stop-color="rgb(10.636902%, 24.77417%, 11.647034%)" offset="0.0546875"/><stop stop-opacity="1" stop-color="rgb(10.784912%, 25.10376%, 11.77063%)" offset="0.0585937"/><stop stop-opacity="1" stop-color="rgb(10.932922%, 25.43335%, 11.895752%)" offset="0.0625"/><stop stop-opacity="1" stop-color="rgb(11.079407%, 25.762939%, 12.020874%)" offset="0.0664062"/><stop stop-opacity="1" stop-color="rgb(11.227417%, 26.094055%, 12.145996%)" offset="0.0703125"/><stop stop-opacity="1" stop-color="rgb(11.373901%, 26.423645%, 12.269592%)" offset="0.0742188"/><stop stop-opacity="1" stop-color="rgb(11.521912%, 26.754761%, 12.394714%)" offset="0.078125"/><stop stop-opacity="1" stop-color="rgb(11.668396%, 27.084351%, 12.519836%)" offset="0.0820312"/><stop stop-opacity="1" stop-color="rgb(11.816406%, 27.415466%, 12.644958%)" offset="0.0859375"/><stop stop-opacity="1" stop-color="rgb(11.962891%, 27.745056%, 12.768555%)" offset="0.0898437"/><stop stop-opacity="1" stop-color="rgb(12.110901%, 28.076172%, 12.893677%)" offset="0.09375"/><stop stop-opacity="1" stop-color="rgb(12.258911%, 28.405762%, 13.018799%)" offset="0.0976562"/><stop stop-opacity="1" stop-color="rgb(12.406921%, 28.736877%, 13.143921%)" offset="0.101562"/><stop stop-opacity="1" stop-color="rgb(12.553406%, 29.066467%, 13.267517%)" offset="0.105469"/><stop stop-opacity="1" stop-color="rgb(12.701416%, 29.396057%, 13.392639%)" offset="0.109375"/><stop stop-opacity="1" stop-color="rgb(12.8479%, 29.725647%, 13.517761%)" offset="0.113281"/><stop stop-opacity="1" stop-color="rgb(12.995911%, 30.056763%, 13.642883%)" offset="0.117187"/><stop stop-opacity="1" stop-color="rgb(13.142395%, 30.386353%, 13.766479%)" offset="0.121094"/><stop stop-opacity="1" stop-color="rgb(13.290405%, 30.717468%, 13.891602%)" offset="0.125"/><stop stop-opacity="1" stop-color="rgb(13.43689%, 31.047058%, 14.016724%)" offset="0.128906"/><stop stop-opacity="1" stop-color="rgb(13.5849%, 31.378174%, 14.141846%)" offset="0.132812"/><stop stop-opacity="1" stop-color="rgb(13.73291%, 31.707764%, 14.265442%)" offset="0.136719"/><stop stop-opacity="1" stop-color="rgb(13.88092%, 32.038879%, 14.390564%)" offset="0.140625"/><stop stop-opacity="1" stop-color="rgb(14.027405%, 32.368469%, 14.515686%)" offset="0.144531"/><stop stop-opacity="1" stop-color="rgb(14.175415%, 32.699585%, 14.640808%)" offset="0.148438"/><stop stop-opacity="1" stop-color="rgb(14.321899%, 33.029175%, 14.764404%)" offset="0.152344"/><stop stop-opacity="1" stop-color="rgb(14.46991%, 33.358765%, 14.889526%)" offset="0.15625"/><stop stop-opacity="1" stop-color="rgb(14.616394%, 33.688354%, 15.014648%)" offset="0.160156"/><stop stop-opacity="1" stop-color="rgb(14.764404%, 34.01947%, 15.139771%)" offset="0.164062"/><stop stop-opacity="1" stop-color="rgb(14.910889%, 34.34906%, 15.263367%)" offset="0.167969"/><stop stop-opacity="1" stop-color="rgb(15.058899%, 34.680176%, 15.388489%)" offset="0.171875"/><stop stop-opacity="1" stop-color="rgb(15.206909%, 35.009766%, 15.513611%)" offset="0.175781"/><stop stop-opacity="1" stop-color="rgb(15.354919%, 35.340881%, 15.638733%)" offset="0.179687"/><stop stop-opacity="1" stop-color="rgb(15.501404%, 35.670471%, 15.762329%)" offset="0.183594"/><stop stop-opacity="1" stop-color="rgb(15.649414%, 36.001587%, 15.887451%)" offset="0.1875"/><stop stop-opacity="1" stop-color="rgb(15.795898%, 36.331177%, 16.012573%)" offset="0.191406"/><stop stop-opacity="1" stop-color="rgb(15.943909%, 36.662292%, 16.137695%)" offset="0.195312"/><stop stop-opacity="1" stop-color="rgb(16.090393%, 36.991882%, 16.261292%)" offset="0.199219"/><stop stop-opacity="1" stop-color="rgb(16.238403%, 37.321472%, 16.386414%)" offset="0.203125"/><stop stop-opacity="1" stop-color="rgb(16.384888%, 37.651062%, 16.51001%)" offset="0.207031"/><stop stop-opacity="1" stop-color="rgb(16.532898%, 37.982178%, 16.635132%)" offset="0.210937"/><stop stop-opacity="1" stop-color="rgb(16.680908%, 38.311768%, 16.760254%)" offset="0.214844"/><stop stop-opacity="1" stop-color="rgb(16.828918%, 38.642883%, 16.885376%)" offset="0.21875"/><stop stop-opacity="1" stop-color="rgb(16.975403%, 38.972473%, 17.008972%)" offset="0.222656"/><stop stop-opacity="1" stop-color="rgb(17.123413%, 39.303589%, 17.134094%)" offset="0.226562"/><stop stop-opacity="1" stop-color="rgb(17.269897%, 39.633179%, 17.259216%)" offset="0.230469"/><stop stop-opacity="1" stop-color="rgb(17.417908%, 39.964294%, 17.384338%)" offset="0.234375"/><stop stop-opacity="1" stop-color="rgb(17.564392%, 40.293884%, 17.507935%)" offset="0.238281"/><stop stop-opacity="1" stop-color="rgb(17.712402%, 40.625%, 17.633057%)" offset="0.242187"/><stop stop-opacity="1" stop-color="rgb(17.858887%, 40.95459%, 17.758179%)" offset="0.246094"/><stop stop-opacity="1" stop-color="rgb(18.006897%, 41.28418%, 17.883301%)" offset="0.25"/><stop stop-opacity="1" stop-color="rgb(18.154907%, 41.61377%, 18.006897%)" offset="0.253906"/><stop stop-opacity="1" stop-color="rgb(18.302917%, 41.944885%, 18.132019%)" offset="0.257812"/><stop stop-opacity="1" stop-color="rgb(18.449402%, 42.274475%, 18.257141%)" offset="0.261719"/><stop stop-opacity="1" stop-color="rgb(18.597412%, 42.605591%, 18.382263%)" offset="0.265625"/><stop stop-opacity="1" stop-color="rgb(18.743896%, 42.935181%, 18.505859%)" offset="0.269531"/><stop stop-opacity="1" stop-color="rgb(18.891907%, 43.266296%, 18.630981%)" offset="0.273437"/><stop stop-opacity="1" stop-color="rgb(19.038391%, 43.595886%, 18.756104%)" offset="0.277344"/><stop stop-opacity="1" stop-color="rgb(19.186401%, 43.927002%, 18.881226%)" offset="0.28125"/><stop stop-opacity="1" stop-color="rgb(19.332886%, 44.256592%, 19.004822%)" offset="0.285156"/><stop stop-opacity="1" stop-color="rgb(19.480896%, 44.587708%, 19.129944%)" offset="0.289062"/><stop stop-opacity="1" stop-color="rgb(19.62738%, 44.917297%, 19.255066%)" offset="0.292969"/><stop stop-opacity="1" stop-color="rgb(19.775391%, 45.246887%, 19.380188%)" offset="0.296875"/><stop stop-opacity="1" stop-color="rgb(19.923401%, 45.576477%, 19.503784%)" offset="0.300781"/><stop stop-opacity="1" stop-color="rgb(20.071411%, 45.907593%, 19.628906%)" offset="0.304687"/><stop stop-opacity="1" stop-color="rgb(20.217896%, 46.237183%, 19.754028%)" offset="0.308594"/><stop stop-opacity="1" stop-color="rgb(20.365906%, 46.568298%, 19.87915%)" offset="0.3125"/><stop stop-opacity="1" stop-color="rgb(20.51239%, 46.897888%, 20.002747%)" offset="0.316406"/><stop stop-opacity="1" stop-color="rgb(20.6604%, 47.229004%, 20.127869%)" offset="0.320312"/><stop stop-opacity="1" stop-color="rgb(20.806885%, 47.558594%, 20.252991%)" offset="0.324219"/><stop stop-opacity="1" stop-color="rgb(20.954895%, 47.889709%, 20.378113%)" offset="0.328125"/><stop stop-opacity="1" stop-color="rgb(21.101379%, 48.219299%, 20.501709%)" offset="0.332031"/><stop stop-opacity="1" stop-color="rgb(21.24939%, 48.550415%, 20.626831%)" offset="0.335937"/><stop stop-opacity="1" stop-color="rgb(21.3974%, 48.880005%, 20.751953%)" offset="0.339844"/><stop stop-opacity="1" stop-color="rgb(21.54541%, 49.209595%, 20.877075%)" offset="0.34375"/><stop stop-opacity="1" stop-color="rgb(21.691895%, 49.539185%, 21.000671%)" offset="0.347656"/><stop stop-opacity="1" stop-color="rgb(21.839905%, 49.8703%, 21.125793%)" offset="0.351562"/><stop stop-opacity="1" stop-color="rgb(21.986389%, 50.19989%, 21.24939%)" offset="0.355469"/><stop stop-opacity="1" stop-color="rgb(22.134399%, 50.531006%, 21.374512%)" offset="0.359375"/><stop stop-opacity="1" stop-color="rgb(22.280884%, 50.860596%, 21.499634%)" offset="0.363281"/><stop stop-opacity="1" stop-color="rgb(22.428894%, 51.191711%, 21.624756%)" offset="0.367187"/><stop stop-opacity="1" stop-color="rgb(22.575378%, 51.521301%, 21.748352%)" offset="0.371094"/><stop stop-opacity="1" stop-color="rgb(22.723389%, 51.852417%, 21.873474%)" offset="0.375"/><stop stop-opacity="1" stop-color="rgb(22.871399%, 52.182007%, 21.998596%)" offset="0.378906"/><stop stop-opacity="1" stop-color="rgb(23.019409%, 52.513123%, 22.123718%)" offset="0.382812"/><stop stop-opacity="1" stop-color="rgb(23.165894%, 52.842712%, 22.247314%)" offset="0.386719"/><stop stop-opacity="1" stop-color="rgb(23.313904%, 53.172302%, 22.372437%)" offset="0.390625"/><stop stop-opacity="1" stop-color="rgb(23.460388%, 53.501892%, 22.497559%)" offset="0.394531"/><stop stop-opacity="1" stop-color="rgb(23.608398%, 53.833008%, 22.622681%)" offset="0.398437"/><stop stop-opacity="1" stop-color="rgb(23.754883%, 54.162598%, 22.746277%)" offset="0.402344"/><stop stop-opacity="1" stop-color="rgb(23.902893%, 54.493713%, 22.871399%)" offset="0.40625"/><stop stop-opacity="1" stop-color="rgb(24.049377%, 54.823303%, 22.996521%)" offset="0.410156"/><stop stop-opacity="1" stop-color="rgb(24.197388%, 55.154419%, 23.121643%)" offset="0.414062"/><stop stop-opacity="1" stop-color="rgb(24.345398%, 55.484009%, 23.245239%)" offset="0.417969"/><stop stop-opacity="1" stop-color="rgb(24.493408%, 55.815125%, 23.370361%)" offset="0.421875"/><stop stop-opacity="1" stop-color="rgb(24.639893%, 56.144714%, 23.495483%)" offset="0.425781"/><stop stop-opacity="1" stop-color="rgb(24.787903%, 56.47583%, 23.620605%)" offset="0.429687"/><stop stop-opacity="1" stop-color="rgb(24.934387%, 56.80542%, 23.744202%)" offset="0.433594"/><stop stop-opacity="1" stop-color="rgb(25.082397%, 57.13501%, 23.869324%)" offset="0.4375"/><stop stop-opacity="1" stop-color="rgb(25.228882%, 57.4646%, 23.994446%)" offset="0.441406"/><stop stop-opacity="1" stop-color="rgb(25.376892%, 57.795715%, 24.119568%)" offset="0.445312"/><stop stop-opacity="1" stop-color="rgb(25.523376%, 58.125305%, 24.243164%)" offset="0.449219"/><stop stop-opacity="1" stop-color="rgb(25.671387%, 58.456421%, 24.368286%)" offset="0.453125"/><stop stop-opacity="1" stop-color="rgb(25.819397%, 58.786011%, 24.493408%)" offset="0.457031"/><stop stop-opacity="1" stop-color="rgb(25.967407%, 59.117126%, 24.61853%)" offset="0.460937"/><stop stop-opacity="1" stop-color="rgb(26.113892%, 59.446716%, 24.742126%)" offset="0.464844"/><stop stop-opacity="1" stop-color="rgb(26.261902%, 59.777832%, 24.867249%)" offset="0.46875"/><stop stop-opacity="1" stop-color="rgb(26.408386%, 60.107422%, 24.992371%)" offset="0.472656"/><stop stop-opacity="1" stop-color="rgb(26.556396%, 60.438538%, 25.117493%)" offset="0.476562"/><stop stop-opacity="1" stop-color="rgb(26.702881%, 60.768127%, 25.241089%)" offset="0.480469"/><stop stop-opacity="1" stop-color="rgb(26.850891%, 61.097717%, 25.366211%)" offset="0.484375"/><stop stop-opacity="1" stop-color="rgb(26.997375%, 61.427307%, 25.491333%)" offset="0.488281"/><stop stop-opacity="1" stop-color="rgb(27.145386%, 61.758423%, 25.616455%)" offset="0.492187"/><stop stop-opacity="1" stop-color="rgb(27.293396%, 62.088013%, 25.740051%)" offset="0.496094"/><stop stop-opacity="1" stop-color="rgb(27.441406%, 62.419128%, 25.865173%)" offset="0.5"/><stop stop-opacity="1" stop-color="rgb(27.587891%, 62.748718%, 25.98877%)" offset="0.503906"/><stop stop-opacity="1" stop-color="rgb(27.735901%, 63.079834%, 26.113892%)" offset="0.507812"/><stop stop-opacity="1" stop-color="rgb(27.882385%, 63.409424%, 26.239014%)" offset="0.511719"/><stop stop-opacity="1" stop-color="rgb(28.030396%, 63.74054%, 26.364136%)" offset="0.515625"/><stop stop-opacity="1" stop-color="rgb(28.17688%, 64.070129%, 26.487732%)" offset="0.519531"/><stop stop-opacity="1" stop-color="rgb(28.32489%, 64.401245%, 26.612854%)" offset="0.523437"/><stop stop-opacity="1" stop-color="rgb(28.471375%, 64.730835%, 26.737976%)" offset="0.527344"/><stop stop-opacity="1" stop-color="rgb(28.619385%, 65.060425%, 26.863098%)" offset="0.53125"/><stop stop-opacity="1" stop-color="rgb(28.767395%, 65.390015%, 26.986694%)" offset="0.535156"/><stop stop-opacity="1" stop-color="rgb(28.915405%, 65.72113%, 27.111816%)" offset="0.539062"/><stop stop-opacity="1" stop-color="rgb(29.06189%, 66.05072%, 27.236938%)" offset="0.542969"/><stop stop-opacity="1" stop-color="rgb(29.2099%, 66.381836%, 27.362061%)" offset="0.546875"/><stop stop-opacity="1" stop-color="rgb(29.356384%, 66.711426%, 27.485657%)" offset="0.550781"/><stop stop-opacity="1" stop-color="rgb(29.504395%, 67.042542%, 27.610779%)" offset="0.554687"/><stop stop-opacity="1" stop-color="rgb(29.650879%, 67.372131%, 27.735901%)" offset="0.558594"/><stop stop-opacity="1" stop-color="rgb(29.798889%, 67.703247%, 27.861023%)" offset="0.5625"/><stop stop-opacity="1" stop-color="rgb(29.945374%, 68.032837%, 27.984619%)" offset="0.566406"/><stop stop-opacity="1" stop-color="rgb(30.093384%, 68.363953%, 28.109741%)" offset="0.570312"/><stop stop-opacity="1" stop-color="rgb(30.145264%, 68.481445%, 28.153992%)" offset="0.578125"/><stop stop-opacity="1" stop-color="rgb(30.198669%, 68.598938%, 28.199768%)" offset="0.59375"/><stop stop-opacity="1" stop-color="rgb(30.198669%, 68.598938%, 28.199768%)" offset="0.625"/><stop stop-opacity="1" stop-color="rgb(30.198669%, 68.598938%, 28.199768%)" offset="0.63029"/><stop stop-opacity="1" stop-color="rgb(30.198669%, 68.598938%, 28.199768%)" offset="0.75"/><stop stop-opacity="1" stop-color="rgb(30.198669%, 68.598938%, 28.199768%)" offset="1"/></linearGradient><clipPath id="9c53345220"><path d="M 9.710938 22 L 25 22 L 25 32 L 9.710938 32 Z M 9.710938 22 " clip-rule="nonzero"/></clipPath><clipPath id="c397ac2e37"><path d="M 9.976562 22.601562 C 9.976562 22.601562 9.769531 24.46875 9.976562 26.28125 C 9.976562 26.28125 10.066406 26.84375 10.851562 27.664062 L 12.714844 28.828125 L 16.082031 30.675781 C 16.082031 30.675781 17.597656 31.441406 19.089844 31.550781 C 20.585938 31.664062 22.996094 30.375 23.816406 28.804688 C 24.636719 27.234375 24.84375 26.972656 24.730469 25.628906 C 24.621094 24.285156 21.554688 24.226562 21.554688 24.226562 L 16.214844 24.039062 L 13.019531 23.742188 C 13.019531 23.742188 10.703125 23.40625 9.976562 22.601562 Z M 9.976562 22.601562 " clip-rule="nonzero"/></clipPath></defs><g clip-path="url(#2b9ab71029)"><g clip-path="url(#8191fa19df)"><path fill="url(#2c5bd351e4)" d="M 9.769531 1.675781 L 9.769531 35.089844 L 39.265625 35.089844 L 39.265625 1.675781 Z M 9.769531 1.675781 " fill-rule="nonzero"/></g></g><g clip-path="url(#9c53345220)"><g clip-path="url(#c397ac2e37)"><path fill="#4daf48" d="M 9.769531 22.601562 L 9.769531 31.664062 L 24.84375 31.664062 L 24.84375 22.601562 Z M 9.769531 22.601562 " fill-opacity="1" fill-rule="nonzero"/></g></g><g fill="#000000" fill-opacity="1"><g transform="translate(46.227249, 26.538404)"><g><path d="M 4.53125 -18.859375 C 3.769531 -18.859375 3.148438 -19.085938 2.671875 -19.546875 C 2.191406 -20.015625 1.953125 -20.617188 1.953125 -21.359375 C 1.953125 -22.078125 2.191406 -22.664062 2.671875 -23.125 C 3.148438 -23.59375 3.769531 -23.828125 4.53125 -23.828125 C 5.039062 -23.828125 5.492188 -23.71875 5.890625 -23.5 C 6.285156 -23.289062 6.59375 -23 6.8125 -22.625 C 7.03125 -22.257812 7.140625 -21.835938 7.140625 -21.359375 C 7.140625 -20.878906 7.03125 -20.445312 6.8125 -20.0625 C 6.59375 -19.6875 6.285156 -19.390625 5.890625 -19.171875 C 5.492188 -18.960938 5.039062 -18.859375 4.53125 -18.859375 Z M 2.421875 0 L 2.421875 -16.84375 L 6.65625 -16.84375 L 6.65625 0 Z M 2.421875 0 "/></g></g></g><g fill="#000000" fill-opacity="1"><g transform="translate(55.299029, 26.538404)"><g><path d="M 2.421875 0 L 2.421875 -23.609375 L 6.65625 -23.609375 L 6.65625 -14.640625 L 6.984375 -14.59375 C 7.546875 -15.414062 8.234375 -16.050781 9.046875 -16.5 C 9.859375 -16.945312 10.835938 -17.171875 11.984375 -17.171875 C 15.703125 -17.171875 17.5625 -15.0625 17.5625 -10.84375 L 17.5625 0 L 13.328125 0 L 13.328125 -10.3125 C 13.328125 -11.457031 13.097656 -12.289062 12.640625 -12.8125 C 12.179688 -13.332031 11.472656 -13.59375 10.515625 -13.59375 C 9.328125 -13.59375 8.382812 -13.195312 7.6875 -12.40625 C 7 -11.613281 6.65625 -10.382812 6.65625 -8.71875 L 6.65625 0 Z M 2.421875 0 "/></g></g></g><g fill="#000000" fill-opacity="1"><g transform="translate(75.030915, 26.538404)"><g><path d="M 16.65625 -7.46875 L 5.8125 -7.46875 C 5.9375 -6 6.351562 -4.929688 7.0625 -4.265625 C 7.78125 -3.597656 8.753906 -3.265625 9.984375 -3.265625 C 10.953125 -3.265625 11.738281 -3.445312 12.34375 -3.8125 C 12.945312 -4.175781 13.429688 -4.722656 13.796875 -5.453125 L 14.109375 -5.453125 L 16.921875 -3.65625 C 16.367188 -2.46875 15.535156 -1.503906 14.421875 -0.765625 C 13.316406 -0.0351562 11.835938 0.328125 9.984375 0.328125 C 8.242188 0.328125 6.738281 -0.00390625 5.46875 -0.671875 C 4.207031 -1.335938 3.234375 -2.320312 2.546875 -3.625 C 1.859375 -4.9375 1.515625 -6.535156 1.515625 -8.421875 C 1.515625 -10.328125 1.875 -11.9375 2.59375 -13.25 C 3.320312 -14.570312 4.300781 -15.554688 5.53125 -16.203125 C 6.757812 -16.847656 8.144531 -17.171875 9.6875 -17.171875 C 12.070312 -17.171875 13.894531 -16.535156 15.15625 -15.265625 C 16.425781 -14.003906 17.0625 -12.15625 17.0625 -9.71875 C 17.0625 -8.832031 17.03125 -8.144531 16.96875 -7.65625 Z M 13.015625 -10.203125 C 12.972656 -11.484375 12.671875 -12.414062 12.109375 -13 C 11.554688 -13.59375 10.75 -13.890625 9.6875 -13.890625 C 7.539062 -13.890625 6.28125 -12.660156 5.90625 -10.203125 Z M 13.015625 -10.203125 "/></g></g></g><g fill="#000000" fill-opacity="1"><g transform="translate(93.342516, 26.538404)"><g><path d="M 7 0.328125 C 5.476562 0.328125 4.316406 -0.0820312 3.515625 -0.90625 C 2.722656 -1.726562 2.328125 -2.972656 2.328125 -4.640625 L 2.328125 -23.609375 L 6.546875 -23.609375 L 6.546875 -4.8125 C 6.546875 -3.78125 6.972656 -3.265625 7.828125 -3.265625 C 8.078125 -3.265625 8.335938 -3.304688 8.609375 -3.390625 L 8.828125 -3.328125 L 9.203125 -0.078125 C 8.972656 0.046875 8.664062 0.144531 8.28125 0.21875 C 7.894531 0.289062 7.46875 0.328125 7 0.328125 Z M 7 0.328125 "/></g></g></g><g fill="#000000" fill-opacity="1"><g transform="translate(103.025191, 26.538404)"><g><path d="M 2.421875 6.828125 L 2.421875 -16.84375 L 6.65625 -16.84375 L 6.65625 -14.640625 L 6.984375 -14.59375 C 7.484375 -15.445312 8.148438 -16.085938 8.984375 -16.515625 C 9.816406 -16.953125 10.789062 -17.171875 11.90625 -17.171875 C 13.257812 -17.171875 14.441406 -16.847656 15.453125 -16.203125 C 16.472656 -15.566406 17.265625 -14.59375 17.828125 -13.28125 C 18.398438 -11.96875 18.6875 -10.347656 18.6875 -8.421875 C 18.6875 -6.492188 18.382812 -4.878906 17.78125 -3.578125 C 17.1875 -2.273438 16.359375 -1.296875 15.296875 -0.640625 C 14.242188 0.00390625 13.023438 0.328125 11.640625 0.328125 C 10.585938 0.328125 9.679688 0.148438 8.921875 -0.203125 C 8.160156 -0.554688 7.515625 -1.101562 6.984375 -1.84375 L 6.65625 -1.78125 L 6.65625 6.828125 Z M 10.46875 -3.265625 C 11.726562 -3.265625 12.679688 -3.675781 13.328125 -4.5 C 13.984375 -5.332031 14.3125 -6.640625 14.3125 -8.421875 C 14.3125 -10.203125 13.984375 -11.503906 13.328125 -12.328125 C 12.679688 -13.160156 11.726562 -13.578125 10.46875 -13.578125 C 9.28125 -13.578125 8.335938 -13.148438 7.640625 -12.296875 C 6.953125 -11.441406 6.609375 -10.148438 6.609375 -8.421875 C 6.609375 -6.691406 6.953125 -5.398438 7.640625 -4.546875 C 8.335938 -3.691406 9.28125 -3.265625 10.46875 -3.265625 Z M 10.46875 -3.265625 "/></g></g></g></svg>