 <svg xmlns="http://www.w3.org/2000/svg" width="40" height="40" viewBox="0 0 40 40" fill="none"><path d="M38.4434 15.2793H31.6152C31.5421 15.2793 31.4697 15.2937 31.4022 15.3216C31.3346 15.3495 31.2733 15.3905 31.2216 15.4422C31.1699 15.4938 31.1289 15.5551 31.1009 15.6226C31.073 15.6901 31.0586 15.7624 31.0586 15.8354V18.9992H26.9023V15.8354C26.9024 15.7624 26.888 15.6901 26.8601 15.6226C26.8321 15.5551 26.7911 15.4938 26.7394 15.4421C26.6877 15.3905 26.6263 15.3495 26.5588 15.3216C26.4912 15.2936 26.4188 15.2793 26.3457 15.2793H19.5176C19.3699 15.2793 19.2284 15.3379 19.124 15.4422C19.0196 15.5465 18.9609 15.6879 18.9609 15.8354V22.4062L12.1885 29.3434H11.2728L9.46883 14.164C9.4528 14.0288 9.38764 13.9041 9.28572 13.8137C9.1838 13.7232 9.0522 13.6733 8.91587 13.6733H7.60547V11.8373C8.50999 11.7882 10.2041 11.5338 11.3475 10.3771C12.9383 8.7678 12.7681 6.11408 12.76 6.00221C12.7504 5.86758 12.6921 5.74103 12.596 5.64616C12.4999 5.55129 12.3725 5.49459 12.2377 5.48662C12.1681 5.48271 11.126 5.42915 9.96467 5.76838C9.61703 3.18346 7.40947 1.24226 7.30836 1.15441C7.20626 1.066 7.07545 1.01771 6.94034 1.01857C6.80523 1.01942 6.67504 1.06934 6.57407 1.15903C6.46553 1.25525 3.91816 3.55034 3.93597 6.45225C3.95201 8.99036 5.92456 11.0398 6.49213 11.5774V13.6736H5.06392C4.92765 13.6736 4.7961 13.7235 4.69422 13.8139C4.59235 13.9043 4.52724 14.029 4.51126 14.1642L3.87832 19.4899C3.79413 20.199 4.89951 20.3312 4.98388 19.621L5.12543 18.4305H8.8549L10.1516 29.3435H3.82845L4.66664 22.2903C4.75084 21.5804 3.64682 21.4386 3.56102 22.1592L2.70751 29.3434H1.55664C1.24932 29.3434 1 29.5925 1 29.8995V38.4254C1 38.7327 1.24937 38.9815 1.55664 38.9815H38.4434C38.5165 38.9815 38.5889 38.9672 38.6564 38.9393C38.724 38.9113 38.7854 38.8704 38.8371 38.8187C38.8887 38.7671 38.9297 38.7057 38.9577 38.6383C38.9857 38.5708 39 38.4984 39 38.4254V32.7533C39 32.0394 37.8867 32.0382 37.8867 32.7533V37.8694H2.11328V30.4557H12.4235C12.4977 30.4557 12.5712 30.4408 12.6396 30.412C12.7079 30.3832 12.7699 30.341 12.8217 30.2879L19.916 23.0204C20.0175 22.9167 20.0742 22.7774 20.0742 22.6323V16.3916H25.7891V22.6323C25.789 22.7054 25.8034 22.7777 25.8314 22.8452C25.8594 22.9126 25.9004 22.9739 25.952 23.0256C26.0037 23.0772 26.0651 23.1182 26.1327 23.1461C26.2002 23.1741 26.2726 23.1884 26.3457 23.1884H31.6152C31.6883 23.1885 31.7607 23.1741 31.8283 23.1462C31.8958 23.1182 31.9572 23.0773 32.0089 23.0256C32.0606 22.974 32.1016 22.9127 32.1296 22.8452C32.1575 22.7777 32.1719 22.7054 32.1719 22.6323V16.3916H37.8867V29.8616C37.8867 30.5755 39 30.5766 39 29.8616V15.8355C39 15.7624 38.9857 15.6901 38.9577 15.6226C38.9297 15.5551 38.8887 15.4938 38.837 15.4422C38.7853 15.3905 38.724 15.3496 38.6564 15.3216C38.5889 15.2937 38.5165 15.2793 38.4434 15.2793ZM26.9023 20.1113H31.0586V22.0762H26.9023V20.1113ZM8.42164 14.7856L8.72267 17.3184H5.25713L5.5584 14.7856H8.42164ZM11.6474 6.60576C11.6117 7.35025 11.4217 8.7194 10.5555 9.59551C9.6887 10.4725 8.31957 10.6792 7.57531 10.7237C7.58552 10.5101 7.60873 10.2438 7.65766 9.94999C7.76715 9.29495 8.03107 8.37856 8.6684 7.73373C9.53468 6.85744 10.9029 6.65048 11.6474 6.60576ZM7.8764 6.95241C6.99646 7.8424 6.65565 9.05146 6.52793 9.97366C5.8678 9.16036 5.0584 7.8739 5.04932 6.44519C5.03797 4.65043 6.30527 3.05279 6.94866 2.35789C7.57418 3.0169 8.78299 4.49911 8.8904 6.20305C8.53018 6.39678 8.18301 6.64194 7.8764 6.95241Z" fill="white"></path><path d="M23.6529 26.5839H21.2767C21.1291 26.584 20.9876 26.6426 20.8832 26.7468C20.7788 26.8511 20.7202 26.9926 20.7202 27.14V34.4704C20.7202 34.7779 20.9695 35.0265 21.2768 35.0265H23.653C23.7261 35.0265 23.7985 35.0122 23.8661 34.9843C23.9336 34.9563 23.995 34.9154 24.0467 34.8637C24.0984 34.8121 24.1394 34.7507 24.1673 34.6832C24.1953 34.6158 24.2096 34.5434 24.2096 34.4704V27.14C24.2096 26.833 23.9603 26.5839 23.6529 26.5839ZM23.0963 33.9142H21.8334V27.6961H23.0963V33.9142ZM29.2198 26.5839H26.8436C26.696 26.584 26.5544 26.6426 26.4501 26.7468C26.3457 26.8511 26.287 26.9926 26.287 27.14V34.4704C26.287 34.7779 26.5364 35.0265 26.8437 35.0265H29.2199C29.293 35.0265 29.3654 35.0121 29.4329 34.9842C29.5004 34.9562 29.5618 34.9153 29.6135 34.8636C29.6652 34.812 29.7062 34.7507 29.7341 34.6832C29.7621 34.6157 29.7765 34.5434 29.7764 34.4704V27.14C29.7764 26.833 29.5271 26.5839 29.2198 26.5839ZM28.6632 33.9142H27.4003V27.6961H28.6632V33.9142ZM34.7865 26.5839H32.4103C32.2626 26.584 32.1211 26.6426 32.0167 26.7468C31.9123 26.8511 31.8537 26.9926 31.8537 27.14V34.4704C31.8537 34.7779 32.103 35.0265 32.4103 35.0265H34.7865C34.8596 35.0265 34.932 35.0121 34.9995 34.9842C35.0671 34.9562 35.1284 34.9153 35.1801 34.8636C35.2318 34.812 35.2728 34.7507 35.3008 34.6832C35.3287 34.6157 35.3431 34.5434 35.3431 34.4704V27.14C35.3431 26.833 35.0938 26.5839 34.7865 26.5839ZM34.2298 33.9142H32.9669V27.6961H34.2298V33.9142ZM17.291 33.9395H4.67383C4.3665 33.9395 4.11719 34.1883 4.11719 34.4956C4.11719 34.8028 4.36656 35.0517 4.67383 35.0517H17.291C17.5983 35.0517 17.8477 34.8028 17.8477 34.4956C17.8477 34.1883 17.5983 33.9395 17.291 33.9395ZM36.1588 3.69897C36.0602 3.74067 35.9791 3.72792 35.9151 3.66095C35.3814 2.08045 33.9214 1.01855 32.2825 1.01855C30.3261 1.01855 28.7063 2.51767 28.4697 4.44898C27.5827 4.64686 26.8235 5.27289 26.4601 6.14111C26.1432 6.89651 26.727 7.75382 27.5406 7.75382H33.5078C34.2233 7.75382 34.2342 6.64163 33.5078 6.64163H27.5406C27.497 6.6351 27.4794 6.6115 27.4868 6.57027C27.751 5.94003 28.3507 5.51828 29.0157 5.4958C29.3154 5.48566 29.5531 5.23979 29.5531 4.94V4.93187C29.5563 3.38661 30.7796 2.13075 32.2825 2.13075C33.4436 2.13075 34.4794 2.8884 34.86 4.01644C35.059 4.60445 35.5883 4.81116 36.1586 4.81116C37.1116 4.81116 37.8867 5.61052 37.8867 6.59803C37.8867 6.62033 37.8598 6.64163 37.8315 6.64163H36.625C35.9095 6.64163 35.8988 7.75382 36.625 7.75382H37.8317C38.4742 7.75382 38.9984 7.23664 39 6.60106V6.5934C39 4.99718 37.7253 3.69897 36.1588 3.69897ZM14.7008 13.0302H24.9919C25.632 13.0302 26.1504 12.5029 26.1602 11.8701C26.1602 10.2738 24.8854 8.97516 23.3189 8.97516C23.2209 9.01686 23.1396 9.00434 23.0752 8.93737C22.5415 7.35687 21.0818 6.29522 19.4426 6.29522C17.4863 6.29522 15.8665 7.79434 15.6299 9.72564C14.743 9.92328 13.9836 10.5496 13.6202 11.4176C13.3036 12.1729 13.8872 13.0302 14.7008 13.0302ZM25.0469 11.8748C25.0469 11.897 25.02 11.9181 24.9919 11.9181H14.7008C14.6574 11.9118 14.6396 11.8879 14.647 11.8469C14.9111 11.2167 15.5114 10.7949 16.1754 10.7723C16.3197 10.7674 16.4565 10.7067 16.5569 10.603C16.6572 10.4993 16.7133 10.3607 16.7133 10.2164V10.2106C16.7154 8.66463 17.939 7.40741 19.4426 7.40741C20.6037 7.40741 21.6395 8.16507 22.0206 9.2931C22.2194 9.88206 22.7482 10.0874 23.3189 10.0874C24.272 10.0874 25.0469 10.8869 25.0469 11.8701V11.8748Z" fill="white"></path></svg>