 <svg xmlns="http://www.w3.org/2000/svg" width="80" height="80" viewBox="0 0 80 80"
                                fill="none">
                                <path
                                    d="M51.5588 56.9148C50.7078 58.0637 52.4982 59.3896 53.3501 58.2391C55.4736 55.3719 56.5958 51.9658 56.5958 48.3894C56.5958 39.248 49.1514 31.8102 40.0005 31.8102C30.8502 31.8102 23.4053 39.2479 23.4053 48.3894C23.4053 57.5303 30.8502 64.968 40.0005 64.968C42.7939 64.968 45.5566 64.2611 47.9896 62.9237C49.2433 62.2344 48.1708 60.2829 46.9157 60.9726C44.8104 62.1296 42.4197 62.7414 40.0005 62.7414C37.0401 62.7414 34.2852 61.8415 31.997 60.3019C32.1094 59.3472 32.1611 57.1054 30.6752 54.8181C30.6376 54.4442 31.1669 53.3313 31.4863 52.6601C31.8954 51.8016 32.3179 50.9133 32.5161 50.0542C32.7521 49.0327 32.4479 48.1411 31.6591 47.5428C31.1135 47.129 30.4443 46.9309 29.8533 46.7566C29.5877 46.6782 29.1856 46.5595 29.0802 46.4856C28.8383 46.2853 28.2988 45.2903 27.976 44.6951C27.5614 43.9312 27.1876 43.2428 26.7949 42.7394C28.9469 37.7385 33.866 34.1945 39.6152 34.0424C39.2627 35.3987 38.5537 37.2686 37.3976 37.9908C33.996 40.1144 32.7548 43.1774 34.1598 45.9838C35.6629 48.9864 38.6954 48.47 41.1317 48.0539C41.5305 47.9863 41.9428 47.9157 42.3361 47.8619C42.6884 48.4051 42.6978 50.6387 42.7025 51.8614C42.7117 54.2123 42.721 56.4324 43.6705 57.6389C44.1822 58.2902 44.9084 58.6245 45.7395 58.6245C46.2332 58.6245 46.7639 58.5068 47.309 58.2664C48.3974 57.7868 49.4908 56.8665 50.3085 55.7421C51.239 54.4632 51.6476 53.1351 51.4582 52.0033C51.1577 50.1999 50.9589 49.0077 51.3536 48.1143C51.6893 47.3568 52.5353 46.5988 54.108 45.6725C54.2805 46.5679 54.3673 47.4776 54.3672 48.3894C54.3672 51.4852 53.3963 54.4337 51.5588 56.9148ZM26.0157 45.7551C26.5923 46.8173 27.0896 47.7349 27.6686 48.2084C28.0995 48.5605 28.6702 48.7284 29.2219 48.8917C29.558 48.9905 30.2581 49.1979 30.3631 49.3592C30.3631 49.3592 30.3765 49.4145 30.3446 49.5532C30.2006 50.1756 29.8311 50.9526 29.4735 51.7042C28.7148 53.2976 27.9984 54.8027 28.7849 55.9987C29.3542 56.8647 29.6243 57.715 29.7418 58.4256C27.2029 55.8359 25.634 52.2924 25.634 48.3894C25.634 47.4231 25.731 46.4796 25.9135 45.5662C25.9497 45.6322 25.9841 45.6962 26.0157 45.7551ZM49.2606 52.3688C49.449 53.5026 47.9307 55.5585 46.4086 56.2287C46.066 56.38 45.616 56.5089 45.4228 56.2631C44.9469 55.6577 44.9376 53.458 44.9312 51.8522C44.9205 49.3185 44.9122 47.1299 43.756 46.1252C43.2986 45.7273 42.721 45.5621 42.0871 45.6478C41.6402 45.7082 41.1911 45.7847 40.757 45.859C38.0871 46.314 36.8451 46.3692 36.1532 44.9873C34.9158 42.5154 37.4375 40.5904 38.5792 39.8779C40.639 38.5921 41.5356 35.7304 41.8848 34.1602C47.2445 34.8648 51.6833 38.5322 53.4933 43.4571C48.4749 46.2853 48.5664 48.2065 49.2606 52.3688Z"
                                    fill="#4BAF47"></path>
                                <path
                                    d="M75.9147 76.7559L75.091 69.8027C74.9234 68.3836 72.7095 68.6429 72.8781 70.0638L73.5541 75.7735H6.44676L12.5517 24.2184H67.4492L72.1198 63.6624C72.2884 65.0814 74.5019 64.8226 74.3337 63.4012L69.5466 22.9743C69.5145 22.7036 69.3842 22.4541 69.1802 22.273C68.9763 22.0919 68.7129 21.9919 68.4401 21.9919H53.345V15.3317C53.345 7.98019 47.3589 2.00006 40.0004 2.00006C37.5906 2.00006 35.2286 2.64903 33.1698 3.87691C31.9412 4.60936 33.0816 6.5223 34.3121 5.7889C36.0254 4.76706 37.9922 4.22662 40.0004 4.22662C46.1295 4.22662 51.1163 9.20819 51.1163 15.3317V21.9919H48.0258V15.5639C48.0258 11.1433 44.4253 7.54699 39.9999 7.54699C35.575 7.54699 31.9747 11.1429 31.9747 15.564V21.9919H28.8842V15.3317C28.8842 13.0847 29.5522 10.9212 30.8153 9.07448C31.6222 7.89493 29.7835 6.63642 28.9746 7.81786C27.4573 10.0366 26.6554 12.6347 26.6554 15.3317V21.9919H11.5607C11.2879 21.9919 11.0246 22.0919 10.8208 22.273C10.6169 22.4541 10.4867 22.7036 10.4548 22.9743L4.08655 76.7559C4.00905 77.4044 4.54716 78.0001 5.1926 78.0001H74.8077C75.4518 78.0001 75.9913 77.4022 75.9147 76.7559ZM34.2034 15.564C34.2034 12.3712 36.8041 9.77356 40.0005 9.77356C43.1968 9.77356 45.7975 12.3712 45.7975 15.564V21.9919H34.2039V15.5639L34.2034 15.564Z"
                                    fill="#4BAF47"></path>
                                <path
                                    d="M15.4837 72.0144H11.5073C10.8647 72.0144 10.3261 71.4187 10.4004 70.7739L11.7005 59.4727C11.8645 58.0528 14.0787 58.3042 13.9149 59.7265L12.7578 69.7878H15.4834C16.9143 69.7878 16.9162 72.0144 15.4837 72.0144ZM25.7671 72.0144H20.4018C18.9708 72.0144 18.969 69.7878 20.4018 69.7878H25.7671C27.1982 69.7878 27.2005 72.0144 25.7671 72.0144Z"
                                    fill="#4BAF47"></path>
                            </svg>