  <svg xmlns="http://www.w3.org/2000/svg" width="40" height="40" viewBox="0 0 40 40" fill="none"><path d="M30.9978 22.2669C32.6244 19.981 33.484 17.2852 33.484 14.4712C33.484 7.04301 27.4351 1 19.9997 1C18.1714 1 16.3987 1.35922 14.7297 2.0678C14.0713 2.34728 14.5002 3.375 15.1657 3.09226C16.6958 2.44263 18.3221 2.11328 19.9997 2.11328C26.8205 2.11328 32.3696 7.65695 32.3696 14.4712C32.3696 17.0526 31.581 19.5255 30.0894 21.6221C28.6298 23.6738 26.6135 25.2141 24.2587 26.0769C24.1516 26.1163 24.0592 26.1875 23.994 26.281C23.9287 26.3745 23.8937 26.4857 23.8938 26.5996V27.7879L20.5573 27.9852V22.9629L22.2292 21.4034C22.9973 21.3805 25.4771 21.1764 27.1166 19.5385C29.0354 17.6213 28.9887 14.5537 28.9859 14.4241C28.9827 14.2808 28.9244 14.1443 28.823 14.0429C28.7216 13.9415 28.5849 13.8831 28.4415 13.8797C28.3117 13.8768 25.2412 13.8303 23.322 15.7475C21.7026 17.3652 21.4832 19.8024 21.4558 20.6019L20.5573 21.4398V16.0759C20.8341 15.78 21.3945 15.1299 21.8697 14.2539C22.211 13.6256 21.232 13.0939 20.8905 13.7234C20.6142 14.232 20.3022 14.6553 20.0555 14.9564C20.0373 14.9545 20.0187 14.9534 20.0002 14.9534C19.9816 14.9534 19.963 14.9545 19.9449 14.9563C19.3682 14.2513 18.4312 12.8666 18.4312 11.3152C18.4312 9.71233 19.4318 8.28733 20.0006 7.60666C20.5703 8.28531 21.5686 9.70538 21.5686 11.3152C21.5686 11.4442 21.5621 11.5762 21.5491 11.7074C21.4792 12.4185 22.588 12.529 22.6584 11.8165C22.6748 11.6499 22.683 11.4826 22.683 11.3152C22.683 8.60416 20.4789 6.46784 20.3848 6.37831C20.2812 6.27928 20.1433 6.22401 19.9999 6.22401C19.8565 6.22401 19.7186 6.27928 19.615 6.37831C19.521 6.46784 17.3168 8.60392 17.3168 11.3152C17.3168 13.6177 18.906 15.5047 19.4429 16.0766V21.4375L18.5434 20.5956C18.515 19.7899 18.2926 17.3611 16.6772 15.7473C14.7582 13.83 11.6872 13.8765 11.5579 13.8797C11.4145 13.883 11.2779 13.9414 11.1765 14.0428C11.0751 14.1441 11.0167 14.2806 11.0135 14.4239C11.0105 14.5533 10.9637 17.6208 12.8826 19.5382C14.5274 21.1814 17.0169 21.3818 17.7767 21.4034L19.4429 22.9629V28.0509L16.1059 28.2487V26.5994C16.1058 26.4854 16.0707 26.3742 16.0054 26.2808C15.9401 26.1873 15.8476 26.1162 15.7405 26.0769C13.3859 25.2141 11.3698 23.6736 9.90999 21.6217C8.41834 19.525 7.62996 17.0523 7.62996 14.4709C7.62996 12.4875 8.08593 10.5932 8.98485 8.84124C9.84313 7.16924 11.0956 5.68944 12.6065 4.56226C13.1858 4.12995 12.5123 3.24372 11.9397 3.67003C10.293 4.89856 8.92863 6.51095 7.99327 8.33329C7.01262 10.244 6.51559 12.309 6.51559 14.4709C6.51559 17.285 7.37528 19.9805 9.00155 22.2665C10.5164 24.3956 12.5814 26.0199 14.9915 26.9821V28.3146C12.6209 28.3658 12.5863 31.9898 14.9915 31.9353V33.349C12.5248 33.4294 12.7226 37.1343 15.2195 36.958C15.6943 38.153 16.8625 39 18.2253 39H21.7741C23.3475 39 24.6612 37.8716 24.9489 36.3824L25.738 36.3355C28.0557 36.198 27.8683 32.5875 25.5237 32.7257L25.0078 32.7561V31.4223C25.0078 31.3961 25.0066 31.3703 25.0058 31.3444L25.738 31.3012C28.0529 31.1643 27.8734 27.5523 25.5237 27.6912L25.0078 27.7215V26.9824C27.4181 26.0199 29.4832 24.3961 30.9978 22.2669ZM24.1101 16.5347C25.2447 15.401 26.9608 15.1004 27.8451 15.0209C27.7671 15.9031 27.4681 17.6129 26.3288 18.751C25.194 19.8845 23.4781 20.1853 22.5938 20.2646C22.6716 19.3826 22.9706 17.6728 24.1101 16.5347ZM12.1557 15.0213C13.0407 15.1006 14.7556 15.4019 15.8893 16.5347C16.9904 17.6345 17.3064 19.2814 17.3967 20.1855C17.3778 20.2008 17.3598 20.2172 17.343 20.2347C17.3361 20.2424 17.3299 20.2505 17.3233 20.2584C16.4198 20.1695 14.7761 19.8557 13.6706 18.751C12.5366 17.6181 12.2356 15.905 12.1557 15.0213ZM25.6318 28.8014C26.5013 28.8014 26.5407 30.1383 25.6718 30.1898L14.9935 30.822C14.8016 30.8341 14.6182 30.7675 14.4775 30.6365C14.4083 30.5724 14.353 30.4949 14.315 30.4086C14.2771 30.3224 14.2572 30.2292 14.2567 30.135C14.255 29.9567 14.3219 29.7845 14.4438 29.6542C14.5656 29.5239 14.7329 29.4453 14.9111 29.4348L25.5896 28.8023C25.6038 28.8016 25.618 28.8014 25.6319 28.8014H25.6318ZM26.1054 34.0227C26.5405 34.4286 26.2654 35.1891 25.672 35.2241L23.0126 35.3816C22.2987 35.4238 22.3635 36.5346 23.0788 36.493L23.7799 36.4515C23.4953 37.2851 22.7038 37.8867 21.774 37.8867H18.2253C17.4667 37.8867 16.8009 37.4866 16.4262 36.8871L20.5527 36.6426C21.2668 36.6004 21.2017 35.4911 20.4867 35.5314L14.9935 35.8568C14.0979 35.9108 14.0173 34.5223 14.9111 34.4694L25.5896 33.8372C25.6837 33.8312 25.778 33.8446 25.8668 33.8765C25.9555 33.9084 26.0367 33.9582 26.1054 34.0227ZM16.1059 33.2831V31.8714L23.893 31.4106C23.893 31.4143 23.8935 31.4183 23.8935 31.4222V32.8222L16.1059 33.2831ZM8.70974 4.31295C9.20701 4.82132 10.0052 4.04505 9.50721 3.53502L7.32697 1.30477C6.82737 0.793375 6.02919 1.5703 6.52973 2.08264L8.70974 4.31295ZM3.72615 5.95544L6.40968 7.54633C7.02029 7.90792 7.59697 6.95555 6.97845 6.58915L4.29475 4.99807C3.6795 4.63351 3.10977 5.59016 3.72615 5.95544ZM2.0212 10.4214L5.02578 11.2642C5.71342 11.4569 6.01712 10.3858 5.32692 10.1924L2.32252 9.34955C1.63346 9.15658 1.33142 10.2281 2.0212 10.4213V10.4214ZM4.65848 15.2134C5.36989 15.2134 5.37774 14.1086 4.66526 14.1001L1.54478 14.063C0.831347 14.0404 0.81001 15.1676 1.53177 15.176L4.652 15.2131C4.65438 15.2134 4.65658 15.2134 4.65848 15.2134ZM5.71603 18.4475C5.698 18.3766 5.66617 18.31 5.62235 18.2515C5.57853 18.1929 5.52359 18.1436 5.46067 18.1063C5.39774 18.069 5.32807 18.0444 5.25564 18.034C5.18321 18.0236 5.10944 18.0276 5.03856 18.0457L2.0149 18.8169C1.32167 18.9934 1.59726 20.0724 2.29049 19.8954L5.31415 19.1245C5.61226 19.0486 5.79217 18.7452 5.71603 18.4475ZM7.17981 21.9733C7.02933 21.7052 6.68949 21.6099 6.42133 21.7604L3.70042 23.2867C3.07566 23.6376 3.62494 24.6062 4.24601 24.2574L6.96686 22.731C7.23526 22.5805 7.33047 22.2414 7.17975 21.9733H7.17981Z" fill="white"></path><path d="M8.72015 24.9911L6.48725 27.1691C5.98225 27.6618 6.75024 28.4685 7.26588 27.9656L9.49837 25.7877C10.0105 25.2884 9.23252 24.4908 8.72015 24.9911ZM31.2901 25.0006C30.7904 24.489 29.9923 25.2661 30.4929 25.7781L32.6729 28.0088C33.1701 28.5176 33.9688 27.7409 33.4703 27.2313L31.2901 25.0006ZM36.2741 23.358L33.5903 21.7672C32.9751 21.4028 32.4054 22.3593 33.0217 22.7243L35.7053 24.3152C36.3159 24.6771 36.8923 23.7247 36.2741 23.358ZM37.9786 18.8917L34.9742 18.0493C34.2856 17.8559 33.9831 18.9276 34.6729 19.121L37.6775 19.9635C38.3654 20.1567 38.6688 19.0853 37.9786 18.8917ZM38.4683 14.1373L35.348 14.1002C34.6346 14.0776 34.6132 15.2048 35.3345 15.2132L38.4552 15.2503C39.1684 15.2731 39.1901 14.1458 38.4683 14.1373ZM34.2838 10.8661C34.3579 11.156 34.6724 11.3416 34.9615 11.2678L37.9851 10.4966C38.6783 10.3201 38.4037 9.24045 37.7095 9.4181L34.6856 10.1891C34.3878 10.2649 34.2078 10.5678 34.2838 10.8661ZM32.82 7.34021C32.9669 7.60117 33.3191 7.69854 33.579 7.55266L36.2997 6.0263C36.9235 5.67635 36.3788 4.70545 35.7541 5.0557L33.0332 6.58253C32.765 6.73304 32.6694 7.07213 32.82 7.34021ZM30.8915 4.48095C31.0319 4.48095 31.1724 4.42811 31.2808 4.3223L33.5133 2.14443C34.0252 1.64484 33.2474 0.847497 32.735 1.34773L30.5021 3.52584C30.1543 3.86493 30.3977 4.48095 30.8915 4.48095Z" fill="white"></path></svg>