 <svg xmlns="http://www.w3.org/2000/svg" width="40" height="40" viewBox="0 0 40 40" fill="none"><path d="M14.6961 17.7336L13.5788 19.6756C13.5212 19.7758 13.4962 19.8914 13.5073 20.0064C13.5184 20.1214 13.5651 20.2301 13.6408 20.3174C13.6816 20.3646 13.7299 20.4046 13.7839 20.4359C14.0509 20.589 14.3917 20.4969 14.5449 20.2306L14.5915 20.1495L15.6625 18.2884C15.8613 17.9428 16.2167 17.7366 16.6137 17.7366C17.0107 17.7366 17.3661 17.9428 17.5651 18.2884L19.4797 21.6157L19.3276 21.58C19.2386 21.5592 19.1458 21.5607 19.0574 21.5842C18.9691 21.6077 18.8879 21.6527 18.821 21.715C18.7399 21.7902 18.6831 21.8879 18.6581 21.9956C18.5879 22.295 18.7741 22.5942 19.0736 22.6645L20.4873 22.9946C20.5291 23.0044 20.5718 23.0094 20.6147 23.0094C20.7369 23.0093 20.8557 22.9691 20.9528 22.8949C21.0499 22.8207 21.1199 22.7167 21.152 22.5989L21.5494 21.1414C21.6304 20.8448 21.4554 20.5391 21.1582 20.4582C20.8613 20.3772 20.5553 20.5521 20.4743 20.849L20.4257 21.0264L18.5311 17.7338C18.1311 17.0386 17.4144 16.6235 16.6137 16.6235C16.4077 16.6235 16.2076 16.6514 16.0168 16.704C15.4656 16.856 14.9932 17.217 14.6961 17.7336ZM22.6577 27.1325C23.0603 26.4374 23.0615 25.6069 22.661 24.9103L21.9424 23.6621C21.7892 23.3954 21.4484 23.3038 21.1817 23.4568C21.1182 23.4932 21.0626 23.5417 21.0179 23.5996C20.9732 23.6575 20.9404 23.7236 20.9213 23.7942C20.9022 23.8647 20.8972 23.9384 20.9066 24.0109C20.9161 24.0834 20.9397 24.1533 20.9762 24.2166L21.0015 24.2605L21.6947 25.4654C21.8948 25.8128 21.8941 26.2277 21.6931 26.5751C21.4939 26.9189 21.1392 27.1239 20.7436 27.1239H17.3018L17.4466 26.9669C17.5263 26.8806 17.5764 26.7711 17.5897 26.6545C17.6097 26.4838 17.5511 26.3061 17.4146 26.1802C17.1883 25.9721 16.8356 25.9863 16.6273 26.2124L15.6412 27.2807C15.5438 27.3862 15.491 27.5252 15.4938 27.6687C15.4966 27.8122 15.5547 27.949 15.656 28.0507L16.7207 29.1192C16.7725 29.1713 16.834 29.2126 16.9019 29.2407C16.9697 29.2689 17.0424 29.2833 17.1158 29.2832C17.2579 29.2832 17.4002 29.229 17.5089 29.1208C17.6136 29.0167 17.6726 28.8753 17.673 28.7276C17.6733 28.58 17.615 28.4383 17.5108 28.3337L17.4144 28.2372H20.7433C21.5413 28.2372 22.257 27.8243 22.6577 27.1325ZM11.6521 21.2841C11.3501 21.3421 11.1521 21.6338 11.2104 21.9358C11.2684 22.2378 11.5607 22.4356 11.8627 22.3772L12.0443 22.3424L10.5666 24.9103C10.5109 25.0078 10.4624 25.1092 10.4215 25.2137C10.1754 25.8392 10.2241 26.536 10.5696 27.1325C10.9706 27.8243 11.6861 28.2372 12.4842 28.2372H14.3048C14.4526 28.2372 14.5943 28.1785 14.6988 28.0741C14.8033 27.9697 14.862 27.8282 14.862 27.6805C14.862 27.5329 14.8033 27.3913 14.6988 27.2869C14.5943 27.1825 14.4526 27.1239 14.3048 27.1239H12.4842C12.0884 27.1239 11.7335 26.9189 11.5342 26.5751C11.3332 26.2277 11.3328 25.8128 11.5329 25.4654L12.9864 22.939L13.0212 23.0899C13.0463 23.1979 13.1031 23.2959 13.1843 23.3715C13.2654 23.4471 13.3673 23.4967 13.4769 23.5141C13.5057 23.5188 13.5343 23.5217 13.564 23.5217C13.6056 23.5217 13.6476 23.5171 13.6896 23.5074C13.9894 23.4382 14.1767 23.1393 14.1073 22.8399L13.7797 21.4214C13.7499 21.2922 13.6749 21.1778 13.5682 21.099C13.4615 21.0201 13.33 20.9819 13.1976 20.9913C13.1754 20.9927 13.1534 20.9955 13.1315 20.9997L11.6521 21.2841Z" fill="white"></path><path d="M38.9805 22.6647C38.9793 21.2552 38.3418 19.948 37.2316 19.0787C36.3919 18.421 35.91 17.4327 35.909 16.3674L35.906 13.0594C36.3634 12.9854 36.7139 12.5879 36.7132 12.1101L36.7118 10.4271C36.7111 9.9072 36.2693 9.46788 35.7493 9.46788L31.8752 9.47139C31.3513 9.4721 30.9145 9.90898 30.9148 10.4327L30.9164 12.1157C30.9171 12.58 31.2656 12.991 31.7259 13.0633L31.729 16.3712C31.7301 17.3402 31.3319 18.2452 30.6294 18.8972V15.0603C30.6294 11.5996 29.3651 8.27391 27.0688 5.69567C26.5933 5.16183 25.7601 5.90099 26.2365 6.4356C28.4149 8.88203 29.5088 12.0203 29.5151 15.2743C29.5183 16.8569 29.5151 18.4393 29.5151 20.0218C28.9683 20.786 28.6686 21.707 28.6698 22.6765L28.6747 23.8327C28.6141 24.6192 29.7935 24.7535 29.7897 23.951L29.784 22.6737C29.783 21.6082 30.2629 20.619 31.101 19.9601C32.2095 19.0881 32.8449 17.7799 32.8433 16.3703L32.8399 12.9216C32.8396 12.4438 32.4886 12.047 32.0305 11.974L32.0293 10.5846L35.5975 10.5812L35.5988 11.9707C35.1413 12.0445 34.791 12.4422 34.7911 12.9195L34.7947 16.3681C34.7958 17.7778 35.4336 19.085 36.5438 19.9548C37.3832 20.612 37.8654 21.6003 37.8661 22.6658L37.868 24.2476H33.1797C32.8722 24.2476 32.6225 24.497 32.6225 24.8043V31.9796C32.6225 32.2874 32.8722 32.5363 33.1797 32.5363H37.8759L37.8805 37.2835C37.8808 37.6059 37.6077 37.8798 37.2843 37.88L30.3957 37.8867H30.395C30.0663 37.8867 29.7986 37.6198 29.7983 37.2911L29.7923 27.2823C29.7916 26.564 28.6773 26.5628 28.678 27.2827L28.6828 35.5637H3.7128V16.906C3.7128 15.4049 3.67423 13.9154 3.97978 12.4334C4.67835 12.8282 5.45746 13.035 6.26516 13.035C8.91873 13.035 11.0776 10.782 11.0776 8.01248C11.0776 6.57757 10.4903 5.22376 9.48174 4.2772C11.5261 2.91093 13.9789 2.11328 16.6139 2.11328C19.2907 2.11328 21.858 2.92832 24.038 4.47017C24.62 4.88212 25.2707 3.97825 24.6817 3.56173C22.3126 1.88576 19.5227 1 16.6139 1C8.88556 1 2.59843 7.30741 2.59843 15.0603V35.5653C0.435844 35.6486 0.490344 39 2.66458 39H6.43603C7.1513 39 7.15249 37.8867 6.43603 37.8867H2.66458C1.89867 37.8867 1.88821 36.677 2.66458 36.677H28.6835C28.6837 37.0801 28.6475 37.5017 28.7914 37.8867H9.55953C8.84426 37.8867 8.84313 39 9.55953 39L37.2853 38.9933C38.2165 38.9926 38.9957 38.2128 38.9949 37.2823L38.9805 22.6647ZM33.7369 25.3609H37.8806V31.423H33.7369V25.3609ZM9.96326 8.01248C9.96326 10.1681 8.30401 11.9215 6.26516 11.9215C5.55012 11.9215 4.86313 11.7079 4.26761 11.3022C5.034 8.77165 6.55329 6.56664 8.56332 4.9517C9.44388 5.6911 9.96326 6.81412 9.96326 8.01248Z" fill="white"></path></svg>