  <svg xmlns="http://www.w3.org/2000/svg" width="80" height="80" viewBox="0 0 80 80"
                                fill="none">
                                <path
                                    d="M53.7457 15.5041H74.3306C75.6161 15.5041 76.6646 14.4695 76.6684 13.1986V13.1824C76.6684 9.98995 74.1181 7.39218 70.9842 7.39218C70.8608 7.39218 70.7369 7.39681 70.6149 7.40524C70.5504 7.40796 70.5124 7.36205 70.4971 7.31708C69.4295 4.15512 66.5096 2.03149 63.2308 2.03149C59.317 2.03149 56.0774 5.03018 55.6041 8.89337C53.8296 9.28919 52.3116 10.5414 51.5842 12.2781C51.4364 12.6308 51.3783 13.0146 51.415 13.3952C51.4518 13.7758 51.5822 14.1413 51.7947 14.4593C52.0083 14.7808 52.2983 15.0445 52.6387 15.2268C52.9791 15.4091 53.3594 15.5043 53.7456 15.5041H53.7457ZM56.6959 10.987C57.2957 10.967 57.7712 10.4752 57.7712 9.87545V9.86346C57.7755 6.77057 60.2232 4.25622 63.231 4.25622C65.5529 4.25622 67.6254 5.77176 68.3871 8.02816C68.7285 9.03848 69.7061 9.69379 70.7629 9.62426C70.8357 9.61963 70.9099 9.61785 70.9842 9.61785C72.8905 9.61785 74.4415 11.2168 74.4415 13.1829V13.1926C74.4415 13.2377 74.3872 13.2792 74.3306 13.2792H53.7457C53.7299 13.2792 53.684 13.2792 53.6487 13.227C53.619 13.1824 53.6321 13.1514 53.6385 13.1371C54.1665 11.8758 55.3667 11.0323 56.6959 10.987Z"
                                    fill="#4BAF47"></path>
                                <path
                                    d="M77.8461 39.182C77.2653 37.799 76.0776 36.7876 74.6783 36.4215C74.2217 33.3425 71.6074 30.9752 68.4615 30.9752C66.391 30.9752 64.4962 32.0086 63.3379 33.668L58.5268 23.3337C57.6152 21.3749 54.9039 20.9791 53.5079 22.6668L44.7159 3.77983C44.2143 2.70306 43.1727 2.0328 41.9985 2.03149H41.9949C40.8215 2.03149 39.781 2.69891 39.2775 3.77378L38.3692 5.71255C37.7619 7.00882 39.7832 7.94368 40.3863 6.65619L41.2943 4.71599C41.4891 4.30166 41.8482 4.25622 41.9948 4.25622H41.9953C42.1414 4.25622 42.5024 4.30166 42.6959 4.71777L47.3106 14.6299C47.3663 16.0584 46.3016 17.4001 44.8101 17.4001C43.1992 17.4001 41.8896 18.729 41.8896 20.3623V22.4099C41.8896 24.2838 39.0827 24.2875 39.0827 22.4099V18.3188C39.0827 17.4451 38.7051 16.6209 38.0472 16.057L36.5752 14.794L37.9553 11.8463C38.5612 10.5526 36.545 9.60848 35.9381 10.9034L32.2522 18.7735L30.3993 14.769C29.3368 12.4873 26.0298 12.4821 24.9614 14.763L18.0214 29.581C16.8007 28.769 15.3509 28.3073 13.8237 28.3073C9.91027 28.3073 6.67028 31.3061 6.19699 35.1696C4.42307 35.565 2.90403 36.8178 2.17717 38.5541C1.54378 40.065 2.71103 41.7799 4.33851 41.7799H12.308L9.44553 47.8928H4.72866C3.94741 47.8928 3.46438 48.6738 3.65096 49.3879C8.04537 66.2156 22.9935 77.9687 40.0018 77.9687C44.8147 77.9687 49.5014 77.0501 53.9338 75.2378C55.2565 74.6965 54.4148 72.6363 53.0899 73.1786C49.2569 74.7456 45.2197 75.5998 41.0744 75.7259C41.2386 73.5415 41.684 68.7083 43.6441 67.3109C44.1655 66.9395 44.7617 66.8594 45.5198 67.0592C53.1336 69.0707 56.0123 65.7475 58.1148 63.3217C59.7386 61.4464 60.5408 60.6492 62.5287 61.3894C64.4521 62.1055 65.9331 62.6348 66.945 62.9685C64.428 66.002 61.469 68.5733 58.125 70.6244C56.9048 71.3728 58.0754 73.2652 59.2904 72.5204C63.4214 69.987 66.9988 66.7102 69.9244 62.7812C72.8861 58.8045 75.0355 54.3514 76.3117 49.5441C76.5112 48.7933 76.1035 47.8928 75.2354 47.8928H69.96L67.2419 42.0538H75.9217C77.3705 42.0543 78.4097 40.5233 77.8461 39.182ZM54.0219 30.9808C53.4137 31.712 52.53 32.1311 51.596 32.1311H51.4244L55.1062 24.2699C55.391 23.6618 56.2243 23.6628 56.5082 24.2717L58.7216 29.0272C56.9016 28.9975 55.2208 29.5393 54.0219 30.9806V30.9808ZM59.8778 39.8296C59.9581 38.4868 61.0395 37.4204 62.3571 37.4204C63.3583 37.4204 64.2805 37.0362 64.6247 36.0123C65.1912 34.3298 66.7325 33.1998 68.4605 33.1998C70.6958 33.1998 72.5149 35.0695 72.5219 37.3703V37.3865C72.5219 37.9862 72.9975 38.478 73.5973 38.4983C74.4732 38.528 75.2721 39.0429 75.6911 39.8296H59.8778ZM36.5969 17.7455C36.7612 17.8863 36.8558 18.0954 36.8558 18.3188V22.4104C36.8558 27.1533 44.1165 27.1643 44.1165 22.4104V20.3623C44.1165 19.9562 44.4276 19.6254 44.8101 19.6254C45.9842 19.6254 47.0587 19.1859 47.8864 18.4624C48.1867 18.1995 48.4533 17.9005 48.6801 17.5722L51.5677 23.7753L52.2214 25.1798L48.7655 32.5584C48.4116 33.3138 48.8797 34.3566 49.7792 34.3566C52.0251 34.3566 54.1575 34.2992 55.7343 32.4027C56.7898 31.1336 58.2772 31.2518 59.7567 31.2518L61.6207 35.2545C59.5456 35.5878 57.9175 37.3031 57.6777 39.4421C57.4319 41.6269 59.1364 42.0542 60.8961 42.0542H64.7858L67.504 47.8928H44.0426L48.5601 38.2472C49.1664 36.9531 47.1497 36.0085 46.5434 37.3035L43.6678 43.4429L33.4742 21.4143L35.5949 16.8861L36.5969 17.7455ZM4.24195 39.5022C4.21226 39.4582 4.22532 39.4275 4.23091 39.4123C4.7593 38.1516 5.95993 37.308 7.28918 37.2631C7.57774 37.2532 7.85117 37.1317 8.05178 36.9242C8.2524 36.7168 8.36452 36.4396 8.3645 36.1511V36.1391C8.36866 33.0467 10.8159 30.5319 13.8241 30.5319C15.0174 30.5319 16.1449 30.9333 17.0625 31.629L13.3505 39.5551H4.33839C4.32319 39.5551 4.27675 39.5551 4.24195 39.5023V39.5022ZM27.6791 15.2453C27.9863 15.2453 28.2489 15.4242 28.3797 15.7046L32.9601 25.6042C31.6862 26.4732 30.66 27.4664 30.66 29.14V32.7158C30.66 34.5893 27.8523 34.592 27.8523 32.7158V29.9479C27.8523 28.6048 27.1331 27.3672 25.9756 26.7183L22.6848 24.8738L26.9786 15.705C27.1734 15.2898 27.533 15.2453 27.6791 15.2453ZM21.7384 26.8945L24.8863 28.6585C25.3424 28.9138 25.6253 29.4084 25.6253 29.9479V32.7149C25.6253 37.4592 32.8867 37.4692 32.8867 32.7149V29.1399C32.8867 28.4353 33.3544 27.9918 33.9075 27.652L42.3104 45.81L42.4338 46.0774L41.5838 47.8928H11.9039L21.7384 26.8945ZM6.16979 50.1175H15.6216C14.4701 52.7579 13.7013 55.2135 14.8065 56.9395C17.5432 61.2134 17.6082 65.437 17.4457 67.4003C12.2381 62.9838 8.24633 57.0397 6.16979 50.1175ZM68.399 61.0952C67.8228 60.9259 66.4635 60.4796 63.3063 59.3047C59.785 57.9943 58.0035 60.0508 56.4318 61.8654C54.4299 64.1759 52.3593 66.5652 46.0892 64.9087C44.7012 64.542 43.4077 64.7465 42.3512 65.5C39.8172 67.3063 39.1478 71.6597 38.8421 75.7226C31.7192 75.484 25.0242 73.0548 19.4746 68.9984C19.6012 68.4111 20.8108 62.187 16.6822 55.7404C15.9996 54.6745 17.3116 51.7549 18.0595 50.1175H73.8341C72.6472 54.0715 70.8231 57.757 68.399 61.0952ZM13.2048 17.9012C17.2572 17.9012 20.5535 14.6076 20.5535 10.5596C20.5535 6.51155 17.2572 3.21801 13.2048 3.21801C9.15276 3.21801 5.85601 6.51155 5.85601 10.5596C5.85601 14.6076 9.15276 17.9012 13.2048 17.9012ZM13.2048 5.44273C16.0288 5.44273 18.3266 7.73794 18.3266 10.5596C18.3266 13.3813 16.0288 15.6765 13.2048 15.6765C10.3803 15.6765 8.0829 13.3813 8.0829 10.5596C8.0829 7.73794 10.3805 5.44273 13.2048 5.44273Z"
                                    fill="#4BAF47"></path>
                            </svg>