 <svg xmlns="http://www.w3.org/2000/svg" width="80" height="80" viewBox="0 0 80 80"
                                fill="none">
                                <path
                                    d="M77.5596 30.2798C77.0739 29.5628 76.264 29.1342 75.3918 29.1342H37.6033C37.3143 28.4622 36.5164 27.2127 36.7511 26.4531C36.8639 26.0888 37.9637 25.403 38.6216 24.9933C40.0411 24.1081 41.6499 23.1052 41.6499 21.504C41.6499 19.9032 40.0416 18.8998 38.6225 18.0141C37.9652 17.6045 36.8649 16.9181 36.7525 16.5539C36.6245 16.1372 37.1394 14.9485 37.4804 14.162C38.1614 12.59 38.8661 10.9651 37.9875 9.69572C37.0911 8.40132 35.2972 8.49268 33.5613 8.58202C32.7728 8.62236 31.4529 8.68998 31.1272 8.44071C30.8002 8.19038 30.5158 6.90251 30.3461 6.13311C29.9702 4.43058 29.5824 2.66933 28.0821 2.15739C26.62 1.65814 25.2592 2.7913 23.9436 3.88779C23.2821 4.43925 22.2815 5.27307 21.8278 5.27307C21.3737 5.27307 20.3735 4.43889 19.7115 3.88732C18.3963 2.78987 17.0366 1.65624 15.5744 2.15501C14.0741 2.66708 13.685 4.42774 13.3087 6.13038C13.1389 6.89978 12.8545 8.18717 12.5274 8.43751C12.2008 8.68725 10.8811 8.61903 10.0928 8.57834C8.35695 8.48841 6.56309 8.39575 5.66586 9.69062C4.78728 10.9601 5.4914 12.5849 6.17201 14.1574C6.51285 14.9439 7.02791 16.1326 6.89941 16.5492C6.78624 16.9135 5.68629 17.5993 5.02848 18.009C3.60883 18.8943 2.00048 19.8972 2 21.4983C2 23.0987 3.60836 24.102 5.02741 24.9872C5.68474 25.3974 6.78505 26.0842 6.89739 26.4484C7.02637 26.8651 6.51048 28.0538 6.16952 28.8398C5.48855 30.4115 4.78384 32.0368 5.66242 33.3061C6.55881 34.601 8.35314 34.5088 10.0886 34.4202C10.8771 34.3795 12.197 34.3119 12.5231 34.5616C12.8497 34.8119 13.1342 36.0998 13.304 36.8692C13.6797 38.5714 14.068 40.3324 15.5678 40.8446C17.0309 41.3442 18.3907 40.211 19.7063 39.1145C20.3678 38.5631 21.3684 37.7292 21.8221 37.7292C22.2767 37.7292 23.2764 38.5635 23.9384 39.115C24.4677 39.5562 25.0045 40.0029 25.5519 40.3477L17.6721 59.9131C16.9966 61.59 18.3002 63.4489 20.094 63.4489H40.3579V71.3441H38.8757C35.8352 71.3441 33.3612 73.8157 33.3612 76.8536C33.3612 77.4677 33.86 77.9659 34.4746 77.9659H44.9227C46.3524 77.9659 46.3547 75.7414 44.9227 75.7414H35.7819C36.2394 74.4752 37.4533 73.5686 38.8756 73.5686H48.9855C50.4073 73.5686 51.6224 74.4752 52.0792 75.7414H50.2664C48.8371 75.7414 48.8347 77.9659 50.2664 77.9659H53.3865C54.0012 77.9659 54.4994 77.4676 54.4994 76.8536C54.4994 73.8157 52.0259 71.3441 48.9854 71.3441H47.5028V63.4489H62.6336C64.3245 63.4489 65.8211 62.4473 66.4454 60.8962L67.5722 58.0983C68.1066 56.7724 66.0488 55.9219 65.5065 57.2683L64.3802 60.0657C64.0962 60.7696 63.4111 61.2248 62.6336 61.2248H57.2229L62.7913 47.4037H69.4794L67.4177 52.5226C66.8839 53.849 68.9413 54.699 69.4835 53.3531L77.8148 32.6703C77.9714 32.2814 78.03 31.8601 77.9855 31.4433C77.941 31.0264 77.7948 30.6269 77.5596 30.2798ZM47.5098 61.2247L53.0781 47.4037H60.3911L54.8233 61.2247H47.5098ZM19.7716 61.0579C19.7262 60.9902 19.6825 60.8799 19.7378 60.7432L25.1108 47.4037H31.251L25.6832 61.2243H20.094C19.9117 61.2247 19.8134 61.1205 19.7716 61.0579ZM21.8231 35.5047H21.8221C20.5612 35.5047 19.4014 36.4715 18.2798 37.4058C17.7463 37.8507 16.6366 38.7809 16.2891 38.7406C15.963 38.5875 15.6235 37.0475 15.4782 36.3899C15.1689 34.9885 14.8492 33.5397 13.8773 32.7958C13.1953 32.274 12.2648 32.1535 11.2753 32.1535C10.8476 32.1535 10.4087 32.1758 9.97445 32.1986C9.30179 32.2328 7.72598 32.3139 7.49725 32.047C7.34927 31.716 7.93238 30.3705 8.21253 29.7242C8.79434 28.382 9.39597 26.9949 9.02485 25.7927C8.66762 24.6364 7.47266 23.8907 6.20669 23.1009C5.61432 22.7316 4.22674 21.8654 4.22674 21.4984C4.22674 21.1309 5.61468 20.2661 6.20764 19.8963C7.47314 19.1074 8.66904 18.3617 9.02627 17.2055C9.39787 16.0032 8.79659 14.6162 8.21538 13.2736C7.93559 12.627 7.35248 11.2816 7.4963 10.9577C7.72966 10.6838 9.305 10.7654 9.97777 10.8002C11.4163 10.8743 12.9045 10.9512 13.881 10.2041C14.8533 9.46021 15.1735 8.01111 15.4829 6.61005C15.6281 5.95242 15.9686 4.41243 16.2831 4.2633C16.6449 4.22616 17.7514 5.15027 18.2844 5.59518C19.4061 6.52997 20.5659 7.49667 21.8267 7.49762H21.8277C23.0886 7.49762 24.2484 6.53033 25.37 5.59601C25.9035 5.1511 27.0146 4.22474 27.3607 4.26176C27.6868 4.41433 28.0263 5.95479 28.1716 6.61243C28.4809 8.01336 28.8006 9.46258 29.7729 10.2065C30.7491 10.9536 32.2367 10.8775 33.6758 10.8034C34.3485 10.7686 35.9239 10.6884 36.1525 10.9553C36.3005 11.2854 35.7174 12.6312 35.4373 13.2778C34.8555 14.6199 34.2538 16.0074 34.6249 17.2096C34.9822 18.3659 36.1771 19.1116 37.4431 19.9009C38.0356 20.2707 39.4231 21.1369 39.4231 21.5039C39.4231 21.8714 38.0351 22.7362 37.4422 23.1056C36.1767 23.8949 34.9807 24.6406 34.6235 25.7969C34.3067 26.8216 34.6977 27.982 35.1803 29.1342H32.8523C31.1615 29.1342 29.6653 30.1356 29.0399 31.6869L26.4031 38.234C26.0227 37.9559 25.6253 37.6245 25.3649 37.4071C24.2437 36.472 23.0839 35.5053 21.8231 35.5047ZM31.1062 32.5173C31.3897 31.8134 32.0753 31.3587 32.8528 31.3587H37.7154L32.1476 45.1792H26.0061L31.1062 32.5173ZM28.0834 61.2247L33.6512 47.4037H40.9647L35.3959 61.2247H28.0834ZM47.4291 31.3587L41.8605 45.1792H34.5479L40.1157 31.3587H47.4291ZM57.1428 31.3587L51.5741 45.1792H44.261L49.8292 31.3587H57.1428ZM59.5425 31.3587H66.8555L61.2878 45.1792H53.9743L59.5425 31.3587ZM43.3649 47.4037H50.6783L45.1096 61.2247H37.7966L43.3649 47.4037ZM45.2766 63.4489V71.3441H42.5845V63.4489H45.2766ZM69.2557 31.3587H75.3918C75.64 31.3587 75.8469 31.5955 75.7485 31.8392L70.3761 45.1797H63.6876L69.2557 31.3587Z"
                                    fill="#4BAF47"></path>
                                <path
                                    d="M31.9598 21.5029C31.9606 15.7478 27.4144 11.0651 21.8261 11.0647H21.8244C20.9429 11.0647 20.0676 11.1818 19.2219 11.4122C18.2718 11.6712 18.1331 12.9619 18.9699 13.4393C19.7261 13.8708 20.9819 13.2887 21.8261 13.2887C26.1864 13.2896 29.7334 16.9741 29.7329 21.5019C29.7329 23.7028 28.9054 25.7698 27.4022 27.3223C25.9104 28.8643 23.9295 29.7133 21.8244 29.7133H21.8234C19.7182 29.7133 17.7369 28.8634 16.2449 27.3205C14.7429 25.7675 13.9161 23.7005 13.9161 21.4996C13.9167 19.4141 14.6704 17.4268 16.039 15.9026C16.9942 14.8394 15.338 13.3521 14.382 14.4167C12.6459 16.3498 11.6899 18.8649 11.6895 21.4997C11.6895 24.2799 12.7383 26.8965 14.6441 28.8662C16.5591 30.8469 19.1091 31.9369 21.8229 31.9379H21.8244C24.5381 31.9379 27.0883 30.8473 29.0032 28.8685C30.9093 26.8997 31.9596 24.2835 31.9596 21.5029H31.9598Z"
                                    fill="#4BAF47"></path>
                            </svg>