 <svg xmlns="http://www.w3.org/2000/svg" width="80" height="80" viewBox="0 0 80 80"
                                fill="none">
                                <path
                                    d="M14.8322 72.3153C16.6519 72.3153 18.1316 70.8356 18.1316 69.0178C18.1316 67.1991 16.6519 65.7196 14.8322 65.7196C13.0136 65.7196 11.5332 67.1991 11.5332 69.0178C11.5332 70.8356 13.0136 72.3153 14.8322 72.3153ZM14.8322 67.9456C15.4238 67.9456 15.9049 68.4264 15.9049 69.0178C15.9049 69.6088 15.4238 70.0901 14.8322 70.0901C14.241 70.0901 13.7595 69.6088 13.7595 69.0178C13.7595 68.4264 14.241 67.9456 14.8322 67.9456ZM27.8702 52.6361H25.3827C24.6608 52.6361 24.0135 52.2629 23.6523 51.6371C23.2916 51.0119 23.2916 50.2653 23.6523 49.6401L26.2997 45.0573C26.5502 46.5634 28.8308 46.1165 28.4961 44.6736L27.8809 42.0192C27.7461 41.4366 27.1744 41.0649 26.5869 41.1769L23.8085 41.7097C22.2919 42 22.9129 44.2596 24.4219 43.8579L21.7243 48.5274C20.9608 49.8495 20.9608 51.428 21.7243 52.7502C22.488 54.0718 23.8553 54.8616 25.3827 54.8616H27.8702C29.2998 54.8616 29.3017 52.6359 27.8702 52.6359V52.6361ZM31.4095 36.2114C31.7706 35.586 32.4176 35.2125 33.1398 35.2125C33.862 35.2125 34.5091 35.5859 34.8697 36.2114L38.3844 42.2951C36.9259 41.8501 36.2794 44.0896 37.7472 44.4316L40.402 45.0494C40.9681 45.1814 41.5747 44.8208 41.7284 44.2597L42.4749 41.5323C42.8801 40.0508 40.5878 39.6007 40.2788 41.1229L36.7986 35.0987C36.0349 33.7766 34.6671 32.9873 33.1403 32.9873C31.613 32.9873 30.2452 33.7766 29.4816 35.0987L27.8748 37.8809C27.16 39.1185 29.0869 40.2329 29.8027 38.9941L31.4095 36.2114ZM43.5476 46.7831C42.8333 45.5455 40.9038 46.6568 41.6196 47.8957L42.6278 49.6401C42.9889 50.2653 42.9889 51.0119 42.6278 51.6372C42.2662 52.2629 41.6193 52.6359 40.8974 52.6359H34.5918C35.7709 51.5726 34.1795 49.8055 33.1179 50.9505L31.2663 52.95C30.8596 53.389 30.8726 54.0705 31.2956 54.4927L33.2956 56.4922C34.351 57.5467 35.8689 55.8785 34.813 54.8616H40.8974C42.4247 54.8616 43.792 54.072 44.5557 52.7502C45.3193 51.4281 45.3193 49.8496 44.5557 48.5274L43.5476 46.7831Z"
                                    fill="#4BAF47"></path>
                                <path
                                    d="M76.8874 47.2484H53.6833L54.7356 25.954H54.8778C56.8773 25.954 58.5031 24.328 58.5031 22.3303V20.7969C58.5031 18.9262 57.0771 17.382 55.2547 17.193L55.6344 11.2035C55.7999 8.60069 54.7964 6.09162 52.8824 4.32023C50.9687 2.54849 48.3891 1.73968 45.8059 2.10395L19.6062 5.79097C19.4504 5.81274 19.2966 5.8364 19.1423 5.86197C16.0338 6.37858 13.0161 7.81912 10.416 10.0285C9.17654 11.0808 8.06765 12.2777 7.11306 13.5936C6.91005 13.5655 6.70537 13.5512 6.50042 13.5508C4.01902 13.5515 2 15.5694 2 18.0497C2 20.5305 4.01902 22.5484 6.50042 22.5484C6.52505 22.5484 6.5492 22.5465 6.57383 22.5465L7.88217 25.3163C7.97219 25.5071 8.11463 25.6683 8.29288 25.7813C8.47114 25.8942 8.67784 25.9541 8.88889 25.9541H11.5428L13.2351 60.1947C12.4095 60.342 11.609 60.606 10.8578 60.9787C9.57589 61.6128 10.5639 63.6077 11.8449 62.9731C12.7773 62.5117 13.7821 62.2781 14.8316 62.2781C18.5498 62.2781 21.5742 65.3009 21.5742 69.0173C21.5742 72.7333 18.5498 75.7561 14.8316 75.7561C11.1139 75.7561 8.08956 72.7333 8.08956 69.0173C8.08956 67.9851 8.31586 66.9947 8.76395 66.0749C9.38814 64.7917 7.38815 63.8139 6.7617 65.1011C6.16489 66.3267 5.86279 67.6446 5.86279 69.0173C5.86279 73.9602 9.88632 77.9818 14.8316 77.9818H76.8869C77.5018 77.9818 78 77.4834 78 76.8692V48.3611C78.0002 48.2149 77.9715 48.0702 77.9156 47.9352C77.8598 47.8001 77.7778 47.6774 77.6745 47.5741C77.5711 47.4708 77.4484 47.3888 77.3133 47.3329C77.1782 47.277 77.0336 47.2483 76.8874 47.2484ZM75.7742 75.756H49.4789V73.0853C49.4789 71.6568 47.2521 71.6545 47.2521 73.0853V75.7537C47.2358 75.7537 47.2206 75.7561 47.2043 75.7561H20.7365C22.6134 74.112 23.8013 71.7009 23.8013 69.0172C23.8013 64.2844 20.1124 60.3989 15.4585 60.076L13.7724 25.954H52.5066L51.4539 47.2484H48.3659C47.7506 47.2484 47.2523 47.7469 47.2523 48.3611V68.0412C47.2523 69.4697 49.479 69.472 49.479 68.0412V49.4741H57.6767V58.3637C57.6767 58.9778 58.1755 59.4764 58.7899 59.4764H66.4624C66.6086 59.4764 66.7534 59.4476 66.8885 59.3917C67.0236 59.3358 67.1463 59.2539 67.2497 59.1505C67.353 59.0472 67.435 58.9245 67.491 58.7895C67.5469 58.6545 67.5757 58.5098 67.5756 58.3637V49.4741H75.7743L75.7742 75.756ZM4.22629 18.0497C4.22629 16.7963 5.24645 15.7766 6.50042 15.7766C7.75486 15.7766 8.77454 16.7964 8.77454 18.0497C8.77454 19.3031 7.75486 20.3228 6.50042 20.3228C5.24645 20.3228 4.22629 19.3031 4.22629 18.0497ZM10.7945 19.3992H42.8205C42.9667 19.3992 43.1116 19.3704 43.2467 19.3145C43.3818 19.2586 43.5046 19.1766 43.608 19.0733C43.7114 18.9699 43.7935 18.8472 43.8494 18.7121C43.9054 18.5771 43.9342 18.4323 43.9342 18.2862C43.9342 18.2267 43.9281 18.1682 43.9187 18.1105C43.8342 17.5801 43.3754 17.1736 42.8205 17.1736L10.9154 17.1731C10.6989 16.0824 10.0861 15.1319 9.23382 14.4791C11.8187 11.1283 15.5711 8.71212 19.5078 8.05768C19.6439 8.03497 19.7796 8.01451 19.9162 7.99501L46.1157 4.30786C48.0321 4.03838 49.9483 4.63764 51.3697 5.95331C52.7904 7.2685 53.535 9.13133 53.4124 11.0629L53.0247 17.1736H49.0551C48.5071 17.1736 48.0525 17.5699 47.9596 18.091C47.9483 18.1555 47.9423 18.2207 47.9419 18.2862C47.9418 18.4323 47.9705 18.5771 48.0264 18.7122C48.0823 18.8473 48.1642 18.97 48.2676 19.0734C48.371 19.1768 48.4938 19.2588 48.6289 19.3147C48.764 19.3706 48.9088 19.3994 49.0551 19.3993H54.8778C55.6497 19.3993 56.2768 20.0264 56.2768 20.7975V22.3304C56.2768 23.1012 55.6497 23.7284 54.8778 23.7284H9.59398L8.75086 21.9436C9.71487 21.3846 10.4539 20.4793 10.7945 19.3992ZM65.3492 49.4741V57.2512H59.9034V49.4741H65.3492Z"
                                    fill="#4BAF47"></path>
                            </svg>